<svg id="Layer_1" data-name="Layer 1" xmlns="http://www.w3.org/2000/svg" xmlns:xlink="http://www.w3.org/1999/xlink" viewBox="0 0 637 251"><defs><style>.cls-1{fill:#0d5783;}.cls-2,.cls-3,.cls-4,.cls-5{opacity:0.75;}.cls-2{fill:url(#linear-gradient);}.cls-3{fill:url(#linear-gradient-2);}.cls-4{fill:url(#linear-gradient-3);}.cls-5{fill:url(#linear-gradient-4);}</style><linearGradient id="linear-gradient" x1="395.36" y1="260.99" x2="201.09" y2="66.72" gradientUnits="userSpaceOnUse"><stop offset="0" stop-color="#fff" stop-opacity="0.4"/><stop offset="0.28" stop-color="#c2c2c2" stop-opacity="0.3"/><stop offset="0.87" stop-color="#262626" stop-opacity="0.06"/><stop offset="1" stop-opacity="0"/></linearGradient><linearGradient id="linear-gradient-2" x1="414.67" y1="-10.89" x2="330.63" y2="73.16" gradientUnits="userSpaceOnUse"><stop offset="0" stop-color="#fff" stop-opacity="0.4"/><stop offset="0.21" stop-color="#f6f6f6" stop-opacity="0.39"/><stop offset="0.4" stop-color="#d9d9d9" stop-opacity="0.34"/><stop offset="0.59" stop-color="#a9a9a9" stop-opacity="0.27"/><stop offset="0.78" stop-color="#666" stop-opacity="0.16"/><stop offset="0.97" stop-color="#111" stop-opacity="0.03"/><stop offset="1" stop-opacity="0"/></linearGradient><linearGradient id="linear-gradient-3" x1="498.59" y1="130.84" x2="570.77" y2="255" gradientUnits="userSpaceOnUse"><stop offset="0" stop-color="#fff" stop-opacity="0.3"/><stop offset="0.2" stop-color="#e9e9e9" stop-opacity="0.27"/><stop offset="0.48" stop-color="#adadad" stop-opacity="0.2"/><stop offset="0.8" stop-color="#4b4b4b" stop-opacity="0.09"/><stop offset="1" stop-opacity="0"/></linearGradient><linearGradient id="linear-gradient-4" x1="631.03" y1="177.54" x2="563.61" y2="244.96" gradientUnits="userSpaceOnUse"><stop offset="0" stop-opacity="0"/><stop offset="0.03" stop-color="#272727" stop-opacity="0.06"/><stop offset="0.1" stop-color="#6a6a6a" stop-opacity="0.17"/><stop offset="0.18" stop-color="#a1a1a1" stop-opacity="0.25"/><stop offset="0.28" stop-color="#cbcbcb" stop-opacity="0.32"/><stop offset="0.4" stop-color="#e9e9e9" stop-opacity="0.37"/><stop offset="0.56" stop-color="#fafafa" stop-opacity="0.39"/><stop offset="1" stop-color="#fff" stop-opacity="0.4"/></linearGradient></defs><rect className="cls-1" width="637" height="251"/><path className="cls-2" d="M252.79,195.84s1.53,10.9,19.62,23.11c19.76,13.33,56.66,46.64,103.31,8.71,0,0,46.2-33.12-17.44-115.07,0,0-38.8-44.9-73.23-56.67,0,0-26.16-15.69-36.18-7.85,0,0-17.44-13.07,0-14s47.95,9.59,92.84,45.77S428,183.64,420.61,226.36c-3.48,22.45-5,24.65-5,24.65H256.28l-20.49-29s-4.79-5.45-3.27-11.77Z"/><path className="cls-3" d="M317.16,59.7S381.38,59.14,413.35,0h12.2S392.42,61.73,317.16,59.7Z"/><path className="cls-4" d="M637,137.87v72.36a64,64,0,0,0-8.24-13,72.47,72.47,0,0,0-14.63-13.58C585,163,544.85,162.71,544.85,162.71c-85.44,6.11-86.31,88.3-86.31,88.3H434.13c-3.93-64.27,38.79-132.76,105.48-140.17S637,137.87,637,137.87Z"/><path className="cls-5" d="M628.76,197.24s-41.63,12.6-56,53.77H561s3-38.11,53.16-67.35A72.47,72.47,0,0,1,628.76,197.24Z"/></svg>